<svg width="91" height="90" viewBox="0 0 91 90" fill="none" xmlns="http://www.w3.org/2000/svg">
<path d="M69.1484 67.5H80.3984V45H69.1484V67.5ZM74.7734 49.2188V56.25H78.9922L74.7734 63.2812V56.25H70.5547L74.7734 49.2188Z" fill="#2A3334"/>
<path d="M76.1797 77.3438H73.3672V80.1562H76.1797V77.3438Z" fill="#2A3334"/>
<path d="M83.2109 40.7812H66.3359C65.963 40.7812 65.6053 40.9294 65.3416 41.1931C65.0778 41.4569 64.9297 41.8145 64.9297 42.1875V73.125C64.9297 73.498 65.0778 73.8556 65.3416 74.1194C65.6053 74.3831 65.963 74.5312 66.3359 74.5312H83.2109C83.5839 74.5312 83.9416 74.3831 84.2053 74.1194C84.469 73.8556 84.6172 73.498 84.6172 73.125V42.1875C84.6172 41.8145 84.469 41.4569 84.2053 41.1931C83.9416 40.9294 83.5839 40.7812 83.2109 40.7812ZM83.2109 68.9062C83.2109 69.2792 83.0628 69.6369 82.7991 69.9006C82.5353 70.1643 82.1777 70.3125 81.8047 70.3125H67.7422C67.3692 70.3125 67.0115 70.1643 66.7478 69.9006C66.4841 69.6369 66.3359 69.2792 66.3359 68.9062V43.5938C66.3359 43.2208 66.4841 42.8631 66.7478 42.5994C67.0115 42.3357 67.3692 42.1875 67.7422 42.1875H81.8047C82.1777 42.1875 82.5353 42.3357 82.7991 42.5994C83.0628 42.8631 83.2109 43.2208 83.2109 43.5938V68.9062ZM36.8047 59.0625V42.1875C36.8047 41.8145 36.6565 41.4569 36.3928 41.1931C36.1291 40.9294 35.7714 40.7812 35.3984 40.7812H7.27344C6.90048 40.7812 6.54279 40.9294 6.27907 41.1931C6.01535 41.4569 5.86719 41.8145 5.86719 42.1875V59.0625C5.86719 59.4355 6.01535 59.7931 6.27907 60.0569C6.54279 60.3206 6.90048 60.4688 7.27344 60.4688H35.3984C35.7714 60.4688 36.1291 60.3206 36.3928 60.0569C36.6565 59.7931 36.8047 59.4355 36.8047 59.0625ZM21.3359 57.6562V50.625H17.1172L21.3359 43.5938V50.625H25.5547L21.3359 57.6562Z" fill="#2A3334"/>
<path d="M22.7422 63.2812H19.9297V64.6875H22.7422V63.2812Z" fill="#2A3334"/>
<path d="M58.3344 15.4688H72.1438L71.5391 11.25H57.8281L58.3344 15.4688Z" fill="#2A3334"/>
<path d="M55.0016 11.25H35.4828L34.9906 15.4688H55.4938L55.0016 11.25Z" fill="#2A3334"/>
<path d="M59.15 22.5H73.1563L72.5516 18.2812H58.6578L59.15 22.5Z" fill="#2A3334"/>
<path d="M71.1453 8.4375L70.7375 5.625H57.1813L57.5047 8.4375H71.1453Z" fill="#2A3334"/>
<path d="M54.3406 5.625H36.1438L35.8063 8.4375H54.6781L54.3406 5.625Z" fill="#2A3334"/>
<path d="M31.8266 18.2812H17.9328L17.3281 22.5H31.3344L31.8266 18.2812Z" fill="#2A3334"/>
<path d="M32.6562 11.25H18.9453L18.3406 15.4688H32.15L32.6562 11.25Z" fill="#2A3334"/>
<path d="M33.3031 5.625H19.7469L19.3391 8.4375H32.9797L33.3031 5.625Z" fill="#2A3334"/>
<path d="M55.8312 18.2812H34.6531L34.1609 22.5H56.3234L55.8312 18.2812Z" fill="#2A3334"/>
<path d="M48.0547 25.3125H42.4297V28.125H48.0547V25.3125Z" fill="#2A3334"/>
<path d="M60.7109 77.3438L55.0859 73.125V75.9375H52.2734V67.5H49.4609V77.3438C49.4609 77.7167 49.6091 78.0744 49.8728 78.3381C50.1365 78.6018 50.4942 78.75 50.8672 78.75H55.0859V81.5625L60.7109 77.3438ZM29.7734 77.3438L35.3984 81.5625V78.75H39.6172C39.9901 78.75 40.3478 78.6018 40.6116 78.3381C40.8753 78.0744 41.0234 77.7167 41.0234 77.3438V67.5H38.2109V75.9375H35.3984V73.125L29.7734 77.3438Z" fill="#2A3334"/>
<path d="M28.3672 66.0938H14.3047V68.9062H28.3672V66.0938Z" fill="#2A3334"/>
<path d="M73.3672 84.375H46.6484V29.5312H43.8359V84.375H22.7422V70.3125H19.9297V85.7812C19.9297 86.1542 20.0778 86.5119 20.3416 86.7756C20.6053 87.0393 20.963 87.1875 21.3359 87.1875H74.7734C75.1464 87.1875 75.5041 87.0393 75.7678 86.7756C76.0315 86.5119 76.1797 86.1542 76.1797 85.7812V81.5625H73.3672V84.375Z" fill="#2A3334"/>
</svg>
